<svg width="1920" height="1080" viewBox="0 0 1920 1080" xmlns="http://www.w3.org/2000/svg">
  <!-- Background -->
  <defs>
    <linearGradient id="skyGradient" x1="0%" y1="0%" x2="0%" y2="100%">
      <stop offset="0%" style="stop-color:#87CEEB;stop-opacity:1" />
      <stop offset="100%" style="stop-color:#98FB98;stop-opacity:1" />
    </linearGradient>
    <linearGradient id="fieldGradient" x1="0%" y1="0%" x2="0%" y2="100%">
      <stop offset="0%" style="stop-color:#9ACD32;stop-opacity:1" />
      <stop offset="100%" style="stop-color:#228B22;stop-opacity:1" />
    </linearGradient>
  </defs>
  
  <!-- Sky -->
  <rect width="1920" height="400" fill="url(#skyGradient)"/>
  
  <!-- Field -->
  <rect y="400" width="1920" height="680" fill="url(#fieldGradient)"/>
  
  <!-- Field Lines -->
  <g stroke="#6B8E23" stroke-width="2" opacity="0.6">
    <line x1="0" y1="500" x2="1920" y2="500"/>
    <line x1="0" y1="600" x2="1920" y2="600"/>
    <line x1="0" y1="700" x2="1920" y2="700"/>
    <line x1="0" y1="800" x2="1920" y2="800"/>
    <line x1="0" y1="900" x2="1920" y2="900"/>
    <line x1="0" y1="1000" x2="1920" y2="1000"/>
  </g>
  
  <!-- Farm Equipment Silhouette -->
  <g transform="translate(1400,600)" fill="#2F4F2F" opacity="0.8">
    <!-- Tractor body -->
    <rect x="0" y="60" width="120" height="80" rx="10"/>
    <!-- Cabin -->
    <rect x="20" y="20" width="60" height="60" rx="5"/>
    <!-- Front wheel -->
    <circle cx="20" r="30" cy="140"/>
    <!-- Back wheel -->
    <circle cx="100" r="40" cy="140"/>
    <!-- Attachment -->
    <rect x="120" y="80" width="60" height="40"/>
  </g>
  
  <!-- Mountains in distance -->
  <g fill="#4682B4" opacity="0.3">
    <polygon points="0,400 200,200 400,400"/>
    <polygon points="300,400 500,150 700,400"/>
    <polygon points="600,400 800,180 1000,400"/>
    <polygon points="900,400 1100,160 1300,400"/>
    <polygon points="1200,400 1400,140 1600,400"/>
    <polygon points="1500,400 1700,170 1920,400"/>
  </g>
  
  <!-- Sun -->
  <circle cx="300" cy="150" r="60" fill="#FFD700" opacity="0.8"/>
  
  <!-- Clouds -->
  <g fill="white" opacity="0.7">
    <ellipse cx="600" cy="100" rx="60" ry="30"/>
    <ellipse cx="580" cy="100" rx="40" ry="25"/>
    <ellipse cx="620" cy="100" rx="40" ry="25"/>
    
    <ellipse cx="1200" cy="120" rx="80" ry="40"/>
    <ellipse cx="1170" cy="120" rx="50" ry="30"/>
    <ellipse cx="1230" cy="120" rx="50" ry="30"/>
  </g>
  
  <!-- Text overlay -->
  <rect width="1920" height="1080" fill="rgba(45,80,22,0.3)"/>
</svg>